<svg xmlns="http://www.w3.org/2000/svg" viewBox="0 0 128 128">
  <rect width="128" height="128" rx="26" fill="#173E39"/>
  <path d="M28 106V58c0-20 16-36 36-36s36 16 36 36v48Z" fill="#F8F0DF"/>
  <path d="M38 100V60c0-15 11-27 26-27s26 12 26 27v40Z" fill="#224F49"/>
  <path d="M47 100V62c0-10 7-18 17-18s17 8 17 18v38Z" fill="#F8F0DF"/>
  <path d="M64 18v16M28 106h72M37 58h54" fill="none" stroke="#D8B864" stroke-width="6" stroke-linecap="round"/>
  <path d="M64 52c7 8 7 17 0 25-7-8-7-17 0-25Z" fill="#D8B864"/>
  <path d="M58 74c2-5 2-10 0-15 8 5 12 13 9 23-1 4-4 8-9 11 2-7 1-13 0-19Z" fill="#C7663F"/>
  <path d="M49 96h30" fill="none" stroke="#D8B864" stroke-width="5" stroke-linecap="round"/>
</svg>
