<svg xmlns="http://www.w3.org/2000/svg" viewBox="0 0 128 128">
  <rect width="128" height="128" rx="28" fill="#1F4A45"/>
  <path d="M31 29h66c6 0 10 4 10 10v50c0 6-4 10-10 10H31c-6 0-10-4-10-10V39c0-6 4-10 10-10Z" fill="#F6F0E3"/>
  <path d="M32 41h64M32 87h64" stroke="#D6B35A" stroke-width="5" stroke-linecap="round"/>
  <path d="M42 50v31h17" fill="none" stroke="#1F4A45" stroke-width="7" stroke-linecap="round" stroke-linejoin="round"/>
  <path d="M86 55c-4-5-10-7-16-5-10 3-13 17-4 25 7 7 18 5 22-3" fill="none" stroke="#1F4A45" stroke-width="7" stroke-linecap="round" stroke-linejoin="round"/>
  <path d="M97 30l6 10 10 5-10 5-6 10-5-10-10-5 10-5 5-10Z" fill="#D6B35A"/>
</svg>
